<svg width="2000" height="530" viewBox="0 0 2000 530" fill="none" xmlns="http://www.w3.org/2000/svg">
<path d="M770 135.026L854.166 396.713H948.256L1032.05 135.026H967.735L901.211 351.138L834.319 135.026H770Z" fill="#2F3037"/>
<path d="M1092.41 284.982C1097.19 259.989 1114.1 243.45 1138.35 243.45C1163.35 243.45 1181.72 261.092 1185.03 284.982H1092.41ZM1035.81 301.153C1035.81 361.797 1078.44 404.064 1139.09 404.064C1185.03 404.064 1224.72 377.234 1233.91 340.48L1184.3 333.497C1178.41 350.036 1161.14 361.797 1140.56 361.797C1115.57 361.797 1097.56 344.523 1092.78 318.06L1240.16 318.428C1240.9 314.385 1240.9 306.666 1240.9 301.888C1240.9 242.347 1199.73 201.183 1139.46 201.183C1078.81 201.183 1035.81 242.347 1035.81 301.153Z" fill="#2F3037"/>
<path d="M1449.51 337.172C1449.51 293.067 1401.36 285.349 1363.14 280.204C1341.82 276.896 1325.28 273.22 1325.28 260.724C1325.65 248.228 1339.25 239.407 1356.16 239.407C1378.21 239.407 1394.75 250.065 1394.75 265.502H1443.26C1443.26 227.646 1406.88 200.448 1356.52 200.448C1310.58 200.448 1275.67 226.911 1275.67 263.664C1275.67 309.607 1310.58 316.222 1352.48 321.368C1375.27 323.573 1396.59 327.984 1396.59 343.788C1396.59 356.284 1381.88 365.84 1361.67 365.84C1337.78 365.84 1320.51 352.609 1320.51 333.864H1273.83C1273.46 375.028 1310.21 404.799 1360.93 404.799C1413.49 404.799 1449.51 376.499 1449.51 337.172Z" fill="#2F3037"/>
<path d="M1658.05 337.172C1658.05 293.067 1609.9 285.349 1571.67 280.204C1550.36 276.896 1533.82 273.22 1533.82 260.724C1534.19 248.228 1547.78 239.407 1564.69 239.407C1586.74 239.407 1603.28 250.065 1603.28 265.502H1651.8C1651.8 227.646 1615.41 200.448 1565.06 200.448C1519.12 200.448 1484.2 226.911 1484.2 263.664C1484.2 309.607 1519.12 316.222 1561.02 321.368C1583.8 323.573 1605.12 327.984 1605.12 343.788C1605.12 356.284 1590.42 365.84 1570.2 365.84C1546.31 365.84 1529.04 352.609 1529.04 333.864H1482.36C1482 375.028 1518.75 404.799 1569.47 404.799C1622.03 404.799 1658.05 376.499 1658.05 337.172Z" fill="#2F3037"/>
<path d="M1745.29 284.982C1750.07 259.989 1766.98 243.45 1791.24 243.45C1816.23 243.45 1834.6 261.092 1837.91 284.982H1745.29ZM1688.69 301.153C1688.69 361.797 1731.33 404.064 1791.97 404.064C1837.91 404.064 1877.61 377.234 1886.8 340.48L1837.18 333.497C1831.3 350.036 1814.02 361.797 1793.44 361.797C1768.45 361.797 1750.44 344.523 1745.66 318.06L1893.04 318.428C1893.78 314.385 1893.78 306.666 1893.78 301.888C1893.78 242.347 1852.61 201.183 1792.34 201.183C1731.69 201.183 1688.69 242.347 1688.69 301.153Z" fill="#2F3037"/>
<path d="M1932.59 124V396.713H1987.72V124H1932.59Z" fill="#2F3037"/>
<path d="M530.252 64.7193C542.72 86.2815 573.853 86.2661 586.3 64.6916L595.621 48.5344C608.068 26.9596 592.497 -2.21225e-06 567.589 0L492.829 6.6448e-06L530.252 64.7193Z" fill="#7E51FF"/>
<path d="M374.7 16.1625C368.916 6.16005 358.239 -1.02676e-06 346.685 0L235.657 9.86774e-06L401.813 287.349C414.281 308.911 445.413 308.896 457.86 287.321L489.913 231.762L489.983 231.929L515.994 186.842C516.973 185.146 514.744 183.436 513.359 184.821C501.136 197.044 480.854 195.335 470.85 181.237L467.087 175.935L374.7 16.1625Z" fill="#3050FB"/>
<path d="M4.37879 48.5344C-8.06824 26.9596 7.50265 3.01457e-05 32.4105 2.79315e-05L87.7875 2.30107e-05C99.3417 2.19839e-05 110.019 6.16009 115.803 16.1625L337.549 399.647L341.402 405.076C351.406 419.173 371.687 420.883 383.911 408.66C385.296 407.275 387.525 408.985 386.546 410.681L365.262 447.574L365.335 447.7L328.033 512.357C315.579 533.944 284.423 533.944 271.969 512.358L4.37879 48.5344Z" fill="#278BFF"/>
</svg>
